<?xml version="1.0" encoding="UTF-8"?>
<svg id="Layer_1" data-name="Layer 1" xmlns="http://www.w3.org/2000/svg" viewBox="0 0 1716.15 1039.09">
  <defs>
    <style>
      .cls-1 {
        fill: #0a0203;
      }

      .cls-2 {
        fill: #fff;
      }
    </style>
  </defs>
  <g>
    <path class="cls-1" d="M1681.68,49.88c-27.2-31.7-66.75-49.88-108.52-49.88H143C101.16,0,61.57,18.23,34.36,50.01,7.16,81.8-4.74,123.73,1.72,165.06l117.68,753.11c5.26,33.66,22.41,64.4,48.3,86.56,25.89,22.15,58.9,34.35,92.98,34.35h1196.63c34.13,0,67.2-12.24,93.1-34.46,25.91-22.23,43.03-53.05,48.22-86.78l115.85-753.12c6.35-41.28-5.61-83.14-32.8-114.84Z"/>
    <path class="cls-2" d="M1457.31,981.9H260.68c-20.44,0-40.25-7.32-55.79-20.61-15.53-13.29-25.82-31.74-28.98-51.94L58.23,156.23c-3.88-24.8,3.26-49.96,19.58-69.03s40.08-30.01,65.18-30.01h1430.16c25.06,0,48.8,10.91,65.11,29.93,16.32,19.02,23.49,44.14,19.68,68.91l-115.85,753.12c-3.11,20.24-13.39,38.73-28.93,52.07-15.54,13.33-35.38,20.68-55.86,20.68ZM143,92.34c-14.82,0-28.84,6.46-38.48,17.71-9.63,11.26-13.85,26.11-11.56,40.75l117.68,753.12c3.88,24.81,24.92,42.83,50.04,42.83h1196.63c25.18,0,46.23-18.06,50.06-42.94l115.85-753.12c2.25-14.62-1.99-29.45-11.62-40.68-9.63-11.23-23.64-17.67-38.44-17.67H143Z"/>
  </g>
  <g>
    <g>
      <path class="cls-2" d="M252.31,197.13h98.2c16.65,0,30.15,13.49,30.15,29.86v43.93c0,7.47-5.74,15.8-14.93,18.95,7.47,1.15,16.08,8.33,16.08,18.67v49.96c0,16.37-13.49,29.86-30.15,29.86h-99.35v-191.24ZM336.73,273.8c1.72,0,2.58-1.15,2.58-2.59v-33.88c0-1.72-1.14-3.16-3.15-3.16h-42.21v39.63h42.78ZM293.95,351.33h43.64c1.72,0,2.87-1.15,2.87-2.87v-36.75c0-1.72-1.15-2.87-3.16-2.87h-43.35v42.5Z"/>
      <path class="cls-2" d="M465.06,197.13h118.88v37.9h-77.24v36.46h71.21v37.9h-71.21v41.06h77.53v37.9h-119.16v-191.24Z"/>
      <path class="cls-2" d="M808.75,388.37h-40.2l-63.74-111.41v111.41h-40.2v-191.24h40.2l63.74,111.99v-111.99h40.2v191.24Z"/>
      <path class="cls-2" d="M1020.64,356.78c0,17.51-14.07,31.58-31.58,31.58h-64.89c-17.52,0-31.58-14.07-31.58-31.58v-21.54l40.77-6.89v19.24c0,1.72,1.15,2.87,2.87,2.87h40.2c1.72,0,2.87-1.14,2.87-2.87v-26.71c0-2.01-1.44-3.15-3.73-3.73-4.88-1.44-20.1-5.74-55.7-15.79-16.95-4.88-26.71-12.35-26.71-29.87v-42.78c0-17.51,14.07-31.58,31.58-31.58h63.17c17.51,0,31.58,14.07,31.58,31.58v20.1l-40.77,6.89v-17.8c0-1.72-1.15-2.87-2.87-2.87h-38.48c-1.72,0-2.87,1.14-2.87,2.87v24.7c0,2.3,1.43,3.15,3.15,3.73,2.87.86,19.24,5.46,57.14,16.08,16.37,4.6,25.84,12.35,25.84,29.87v44.51Z"/>
      <path class="cls-2" d="M1203.25,388.37h-70.64c-17.51,0-31.58-14.07-31.58-31.58v-128.07c0-17.51,14.07-31.58,31.58-31.58h70.64c17.51,0,31.58,14.07,31.58,31.58v128.07c0,17.51-14.07,31.58-31.58,31.58ZM1190.33,235.04h-44.8c-1.72,0-2.87,1.14-2.87,2.87v109.69c0,1.72,1.14,2.87,2.87,2.87h44.8c1.72,0,2.87-1.14,2.87-2.87v-109.69c0-1.72-1.14-2.87-2.87-2.87Z"/>
      <path class="cls-2" d="M1463.66,388.37h-40.19l-63.75-111.41v111.41h-40.2v-191.24h40.2l63.75,111.99v-111.99h40.19v191.24Z"/>
      <path class="cls-2" d="M588.83,611.25v33.02c0,17.51-14.07,31.58-31.58,31.58h-65.76c-17.51,0-31.58-14.07-31.58-31.58v-128.07c0-17.51,14.07-31.58,31.58-31.58h65.76c17.52,0,31.58,14.07,31.58,31.58v28.72l-40.77,6.89v-26.41c0-1.72-1.15-2.87-2.87-2.87h-40.78c-1.72,0-2.87,1.14-2.87,2.87v109.69c0,1.72,1.14,2.87,2.87,2.87h40.78c1.72,0,2.87-1.14,2.87-2.87v-30.73l40.77,6.89Z"/>
      <path class="cls-2" d="M732.09,605.51h-28.42v70.35h-41.64v-191.24h106.24c17.51,0,31.58,14.07,31.58,31.58v57.72c0,14.35-9.47,26.41-22.68,30.43l33.88,71.5h-45.66l-33.31-70.35ZM703.67,522.52v45.08h51.97c1.72,0,2.87-1.15,2.87-2.87v-39.34c0-1.72-1.14-2.87-2.87-2.87h-51.97Z"/>
      <path class="cls-2" d="M877.08,484.62h118.88v37.9h-77.24v36.46h71.21v37.9h-71.21v41.06h77.53v37.9h-119.16v-191.24Z"/>
      <path class="cls-2" d="M1142.95,484.62h36.18l32.45,118.59,13.79-118.59h40.77l-29.29,191.24h-41.92l-33.88-125.48-33.31,125.48h-41.92l-29.29-191.24h40.77l13.78,118.59,31.88-118.59Z"/>
    </g>
    <g>
      <rect class="cls-2" x="287.75" y="566.52" width="98.96" height="35.48"/>
      <rect class="cls-2" x="1329.24" y="566.52" width="98.97" height="35.49"/>
    </g>
    <g>
      <path class="cls-2" d="M325.23,772.07h38.94c9.28,0,13.78,4.39,13.78,13.78v17.47c0,7.89-3.09,12.18-9.58,13.38l12.08,25.26h-17.27l-11.68-24.06h-9.68v24.06h-16.57v-69.89ZM359.48,804.12c1.4,0,1.9-.4,1.9-1.9v-14.18c0-1.5-.5-1.9-1.9-1.9h-17.67v17.97h17.67Z"/>
      <path class="cls-2" d="M402.51,772.07h48.12v14.38h-31.55v12.68h25.26v14.18h-25.26v14.28h31.55v14.38h-48.12v-69.89Z"/>
      <path class="cls-2" d="M489.07,772.07h22.86l21.27,69.89h-17.87l-3.99-14.78h-22.26l-3.99,14.78h-17.17l21.17-69.89ZM507.54,813.11l-7.29-27.36-7.39,27.36h14.68Z"/>
      <path class="cls-2" d="M553.17,772.07h16.57v55.31h29.05v14.58h-45.63v-69.89Z"/>
      <path class="cls-2" d="M654.4,772.07h48.12v14.38h-31.55v12.68h25.26v14.18h-25.26v14.28h31.55v14.38h-48.12v-69.89Z"/>
      <path class="cls-2" d="M722.99,828.18v-9.19h16.37v7.09c0,1.4.5,1.9,1.9,1.9h15.77c1.4,0,1.9-.5,1.9-1.9v-7.29c0-1.6-.7-2.1-2.8-2.6l-18.57-4.49c-9.28-2.3-14.38-4.89-14.38-14.38v-11.48c0-9.38,4.49-13.78,13.78-13.78h23.56c9.29,0,13.78,4.39,13.78,13.78v8.39h-16.37v-6.29c0-1.5-.5-1.9-1.9-1.9h-14.38c-1.4,0-1.9.4-1.9,1.9v6.49c0,1.6.6,2.1,2.8,2.6l18.57,4.49c9.29,2.3,14.38,4.89,14.38,14.38v12.28c0,9.28-4.49,13.78-13.78,13.78h-24.96c-9.29,0-13.78-4.49-13.78-13.78Z"/>
      <path class="cls-2" d="M811.85,786.55h-18.17v-14.48h53.01v14.48h-18.27v55.41h-16.57v-55.41Z"/>
      <path class="cls-2" d="M874.95,772.07h22.86l21.27,69.89h-17.87l-3.99-14.78h-22.26l-3.99,14.78h-17.17l21.17-69.89ZM893.42,813.11l-7.29-27.36-7.39,27.36h14.68Z"/>
      <path class="cls-2" d="M944.44,786.55h-18.17v-14.48h53.01v14.48h-18.27v55.41h-16.57v-55.41Z"/>
      <path class="cls-2" d="M998.45,772.07h48.12v14.38h-31.55v12.68h25.26v14.18h-25.26v14.28h31.55v14.38h-48.12v-69.89Z"/>
      <path class="cls-2" d="M1117.16,786.55h-18.17v-14.48h53.01v14.48h-18.27v55.41h-16.57v-55.41Z"/>
      <path class="cls-2" d="M1173.17,772.07h48.12v14.38h-31.55v12.68h25.26v14.18h-25.26v14.28h31.55v14.38h-48.12v-69.89Z"/>
      <path class="cls-2" d="M1259.73,772.07h22.86l21.27,69.89h-17.87l-3.99-14.78h-22.26l-3.99,14.78h-17.17l21.17-69.89ZM1278.2,813.11l-7.29-27.36-7.39,27.36h14.68Z"/>
      <path class="cls-2" d="M1319.84,772.07h18.47l17.17,38.94,17.07-38.94h18.37v69.89h-16.17v-42.43l-14.08,33.55h-10.98l-14.08-33.55v42.43h-15.77v-69.89Z"/>
    </g>
  </g>
</svg>