<svg xmlns="http://www.w3.org/2000/svg" height="512" preserveAspectRatio="none" style="display: block;" version="1.1" viewBox="0 0 2048 2048" width="512">
<path d="M 1012.02 261.534 C 1135.03 252.394 1239.87 374.025 1218.79 494.03 C 1194.28 582.968 1206.18 627.241 1116.02 691.96 C 1115.67 697.422 1115.96 705.426 1116.02 711.069 C 1271.57 716.143 1366.28 819.159 1361.82 975.19 C 1359.07 1071.33 1276.27 1058.97 1209.72 1058.98 L 1038.52 1058.94 L 1038.52 1218.57 C 1125.33 1223.43 1162.55 1288.46 1176.42 1363.44 L 1247.83 1418.39 C 1260.07 1427.62 1283.29 1443.97 1293.48 1453.48 C 1347.34 1430.69 1366.27 1427.37 1424.06 1427.53 L 1424.06 1398.34 C 1386.63 1366.84 1363.76 1332.53 1348.18 1285.9 C 1340.49 1262.9 1338.67 1256.3 1329.15 1233.44 C 1273.78 1110.75 1373.44 965.059 1503.9 957.755 C 1638.25 950.234 1742.06 1073.81 1716.75 1205.3 C 1713.49 1222.26 1707.01 1234.37 1702.45 1250.09 C 1679.04 1330.84 1670.36 1339.64 1617.22 1398.34 C 1618.55 1410 1618.33 1415.86 1617.22 1427.53 C 1736.15 1422.9 1851.92 1509.25 1866.14 1630 C 1871.86 1678.57 1872.55 1739.61 1828.38 1769.32 C 1804.72 1785.23 1784.42 1782.11 1757.26 1782.09 L 1324.25 1781.99 C 1270.05 1782.06 1184.04 1789.16 1174.26 1710.96 C 1163.09 1621.59 1192.14 1520.67 1271.35 1470.18 C 1241.38 1442.55 1204.64 1420.08 1172.74 1394.64 C 1157.86 1465.45 1098.26 1522.56 1023.51 1518.87 C 947.972 1519.35 892.419 1465.87 875.3 1394.64 C 863.182 1399.09 786.753 1458.98 772.383 1470.18 C 832.424 1511.1 871.565 1583.19 871.919 1655.71 C 872.232 1719.69 862.154 1784.88 781.636 1782.02 L 310.004 1782.06 C 293.421 1782.08 262.031 1783.82 247.543 1780.34 C 177.481 1763.52 172.158 1686.57 182.351 1627.69 C 204.413 1500.23 304.938 1432.68 431.042 1433.01 L 431.042 1398.34 C 419.167 1382.36 401.902 1371 390.395 1353.32 C 368.576 1319.8 360.634 1297.07 348.426 1260.46 C 283.068 1125.65 371.555 966.111 524.725 957.78 C 633.726 951.851 730.484 1042.46 735.006 1153.49 C 737.17 1206.61 698.02 1315.56 666.853 1357.5 C 653.011 1376.13 638.432 1384.02 623.989 1399.87 L 623.013 1400.96 L 623.013 1433.01 C 668.69 1432.45 705.117 1433.14 746.573 1456.96 C 785.471 1428.53 830.695 1386.8 872.026 1363.44 C 882.599 1287.23 929.984 1222.84 1012.02 1218.57 L 1012.02 1058.94 L 843.299 1058.96 C 767.588 1058.97 685.885 1071.23 684.562 968.533 C 682.655 820.58 785.932 710.068 934.663 711.069 C 934.89 705.183 934.677 697.954 934.663 691.96 C 872.338 657.364 832.476 551.172 825.561 481.119 C 814.282 366.864 898.156 271.165 1012.02 261.534 z M 459.092 1427.53 C 463.896 1425.58 471.162 1423.42 474.094 1419.47 C 468.792 1417.22 464.504 1415.66 459.092 1413.78 C 459.201 1418.52 459.31 1422.77 459.092 1427.53 z" fill="rgb(74,37,30)" transform="translate(0,0)"></path>
<path d="M 1611.24 1460.44 L 1617.22 1453.48 C 1731.39 1452.04 1844.83 1538.34 1839.93 1657.91 C 1837.27 1722.84 1838.02 1768.04 1749.59 1754.92 L 1731.73 1754.92 L 1731.79 1679.11 C 1731.79 1665.54 1732.13 1652.17 1731.06 1638.69 C 1729.75 1622.14 1706.49 1622.58 1705.17 1637.25 C 1704.05 1649.82 1704.63 1664.49 1704.64 1677.21 L 1704.73 1754.92 L 1340.14 1754.92 L 1340.25 1674.95 C 1340.26 1662.49 1340.84 1647.89 1339.56 1635.65 C 1338.24 1623.12 1315.69 1622.11 1314.51 1636.85 C 1313.45 1650.13 1313.87 1663.22 1313.88 1676.51 L 1313.98 1754.92 C 1223.11 1755.28 1186.11 1749.98 1200.38 1636.26 C 1213.01 1535.66 1311.34 1438.22 1415.36 1453.46 C 1416.24 1467.67 1421.6 1468.9 1431.57 1480.13 C 1443.11 1493.12 1511.99 1586.54 1528.28 1566.85 C 1556.55 1532.67 1583.5 1494.94 1611.24 1460.44 z" fill="rgb(169,184,89)" transform="translate(0,0)"></path>
<path d="M 319.219 1754.92 L 281.13 1754.98 C 208.802 1755 206.208 1720.96 207.732 1657.48 C 210.696 1534.01 311.137 1455.47 431.042 1460.44 C 431.387 1465.67 431.081 1473.91 431.042 1479.37 C 442.438 1490.5 516.649 1565.68 525.934 1566.83 C 533.328 1564.57 611.921 1494.43 623.013 1479.37 L 623.013 1460.44 C 628.641 1460.17 634.929 1460.39 640.61 1460.44 C 761.399 1454.4 850.636 1555.47 844.472 1672.55 C 840.863 1741.11 833.306 1755.98 758.062 1754.92 L 738.978 1754.92 C 738.351 1717.85 740.155 1680.48 738.459 1643.45 C 737.687 1626.59 713.425 1625.36 712.121 1643.65 C 711.231 1656.13 711.722 1668.3 711.742 1680.84 L 711.827 1754.92 L 347.032 1754.92 L 347.139 1683.08 C 347.182 1609.24 318.915 1608.4 319.103 1680.67 L 319.219 1754.92 z" fill="rgb(231,207,196)" transform="translate(0,0)"></path>
<path d="M 640.61 1460.44 C 761.399 1454.4 850.636 1555.47 844.472 1672.55 C 840.863 1741.11 833.306 1755.98 758.062 1754.92 C 758.062 1644.87 770.997 1555.94 666.794 1480.54 C 658.705 1474.69 648.966 1467.86 641.449 1461.2 L 640.61 1460.44 z" fill="rgb(169,184,89)" transform="translate(0,0)"></path>
<path d="M 821.786 1031.65 C 752.323 1031.44 707.869 1042.41 711.561 949.134 C 716.2 831.989 811.907 729.48 934.663 738.522 L 934.663 774.507 C 942.868 784.612 1013.52 854.919 1022.92 857.111 C 1036.47 855.026 1114.22 784.438 1116.02 767.919 C 1115.33 758.054 1116.08 748.372 1116.02 738.522 C 1252.43 736.385 1337.73 835.185 1335.05 968.948 C 1333.72 1035.13 1294.35 1031.9 1240.78 1031.65 L 1227.9 1031.65 C 1227.87 1015.14 1230.56 919.746 1225.67 912.155 C 1219.51 902.585 1205.4 906.032 1203.45 917.152 C 1201.45 928.647 1202.88 942.428 1202.89 954.187 L 1202.99 1031.65 L 847.667 1031.65 C 847.506 1024.61 858.947 869.951 824.523 910.022 C 817.479 918.223 821.701 946.638 821.716 956.805 L 821.786 1031.65 z" fill="rgb(231,207,196)" transform="translate(0,0)"></path>
<path d="M 1116.02 738.522 C 1252.43 736.385 1337.73 835.185 1335.05 968.948 C 1333.72 1035.13 1294.35 1031.9 1240.78 1031.65 C 1282.36 943.764 1234.97 826.356 1151.4 782.069 C 1140.54 776.315 1127.41 772.084 1116.02 767.919 C 1115.33 758.054 1116.08 748.372 1116.02 738.522 z" fill="rgb(169,184,89)" transform="translate(0,0)"></path>
<path d="M 553.13 1400.96 C 537.521 1401.26 518.589 1402.79 503.209 1399.86 C 432.077 1387.09 381.895 1308.94 371.278 1242.05 C 367.328 1217.15 385.943 1153.48 409.989 1138.89 C 436.737 1122.65 474.443 1130.66 504.524 1123.14 C 541 1114.01 551.072 1085.75 591.327 1093.45 C 613.001 1095.3 636.636 1102.43 650.708 1120.62 C 685.081 1165.04 698.848 1220.45 680.315 1273.41 C 659.374 1333.26 618.083 1387.65 553.13 1400.96 z" fill="rgb(231,207,196)" transform="translate(0,0)"></path>
<path d="M 1393.28 1135.75 C 1439.73 1125.38 1474.56 1134.41 1524.33 1109.91 C 1551.39 1096.6 1558.21 1089.6 1589.92 1093.45 C 1649.77 1103.18 1686.49 1191.16 1676.61 1242.03 C 1663.6 1309.03 1619.12 1384.36 1546.82 1398.34 C 1415.89 1431.6 1307.64 1235.92 1393.28 1135.75 z" fill="rgb(231,207,196)" transform="translate(0,0)"></path>
<path d="M 1051.68 689.244 C 950.82 708.563 864.018 617.247 868.119 521.002 C 869.329 492.604 879.465 452.956 901.445 432.971 C 915.677 420.402 979.08 430.129 1016.92 412.411 C 1047.36 398.16 1059.91 382.886 1094.95 385.293 C 1216.46 405.215 1213.92 665.779 1051.68 689.244 z" fill="rgb(231,207,196)" transform="translate(0,0)"></path>
<path d="M 1016.5 1243.92 C 1085.29 1239.39 1144.69 1291.54 1149.11 1360.34 C 1153.52 1429.13 1101.27 1488.45 1032.47 1492.75 C 963.828 1497.04 904.68 1444.94 900.277 1376.3 C 895.873 1307.67 947.877 1248.44 1016.5 1243.92 z" fill="rgb(231,207,196)" transform="translate(0,0)"></path>
<path d="M 526.29 984.288 C 641.164 980.997 710.68 1070.99 707.902 1179.49 C 684.569 1105.69 630.776 1041.28 548.406 1072.92 C 532.201 1079.1 515.572 1094.26 498.171 1098.03 C 422.48 1114.45 391.81 1085.1 354.058 1177.64 C 353.867 1073.08 415.441 990.343 526.29 984.288 z" fill="rgb(190,125,104)" transform="translate(0,0)"></path>
<path d="M 1340.14 1184.46 C 1333.53 1041.07 1457.79 941.565 1593.42 1001.47 C 1666.21 1035.81 1694.51 1101.64 1695.3 1177.64 C 1678.01 1117.35 1671.19 1120.82 1633.99 1081.68 C 1567.97 1043.56 1540.53 1080.26 1482.73 1097.6 C 1404.53 1121.05 1369.67 1079.35 1340.14 1184.46 z" fill="rgb(190,125,104)" transform="translate(0,0)"></path>
<path d="M 1019.34 288.024 C 1109.66 279.005 1190.42 367.785 1195.3 455.015 C 1178.36 402.244 1142.74 356.879 1082.25 360.243 C 1068.13 361.028 1040.85 366.351 1031.25 377.17 C 1011.15 386.66 1001.46 392.982 979.086 397.573 C 901.071 413.583 889.072 373.607 847.667 476.187 C 859.854 374.851 905.022 289.63 1019.34 288.024 z" fill="rgb(190,125,104)" transform="translate(0,0)"></path>
<path d="M 459.092 1413.78 C 459.201 1418.52 459.31 1422.77 459.092 1427.53 C 463.896 1425.58 471.162 1423.42 474.094 1419.47 C 525.747 1438.06 549.932 1424.6 596.922 1417.28 L 596.922 1466.74 C 584.674 1480.92 541.572 1523.19 526.29 1533.81 C 505.18 1513.84 481.016 1488.7 459.092 1470.18 C 459.192 1453.83 457.932 1429.18 459.092 1413.78 z" fill="rgb(231,207,196)" transform="translate(0,0)"></path>
<path d="M 970.704 711.069 C 1030.59 723.63 1036.67 717.231 1090.08 706.728 L 1090.08 765.109 C 1074.14 777.249 1038.79 812.849 1023.51 828.192 C 1009.39 810.858 977.566 781.205 960.765 765.109 L 960.765 724.984 L 960.765 706.728 L 970.704 711.069 z" fill="rgb(231,207,196)" transform="translate(0,0)"></path>
<path d="M 960.765 706.728 L 970.704 711.069 C 970.001 719.109 970.837 718.037 963.017 721.643 L 960.765 724.984 L 960.765 706.728 z" fill="rgb(224,230,195)" transform="translate(0,0)"></path>
<path d="M 1578.71 1417.28 C 1584.38 1414.36 1587.35 1412.73 1593.42 1410.75 L 1593.42 1439.65 C 1588.63 1446.29 1583.1 1453.62 1578.71 1460.44 C 1558 1483.87 1537.24 1513.3 1517.67 1538.27 C 1495.81 1513.53 1462.9 1479.13 1444.39 1453.48 C 1452.53 1444.32 1448.4 1427.58 1449.05 1413.78 C 1451.98 1413.26 1462.02 1417.97 1465.49 1419.47 C 1513.52 1433.92 1532.07 1430.38 1578.71 1417.28 z" fill="rgb(231,207,196)" transform="translate(0,0)"></path>
<path d="M 1449.05 1413.78 C 1451.98 1413.26 1462.02 1417.97 1465.49 1419.47 C 1463.95 1420.47 1452.06 1425.95 1449.05 1427.53 C 1449.27 1422.33 1449.35 1419.03 1449.05 1413.78 z" fill="rgb(224,230,195)" transform="translate(0,0)"></path>
<metadata><recraft-signature>{"signed_by": "recraft", "signature_b64": "gAm+e3pCZdPsmyyEWowPHHF+0+OvMITbf6/gjH8sg64w6hO7+8DCpw1hKRPV5iN+eubUpscw5Lx6jMFsdNdjAQ==", "signing_algo": "Ed25519", "generation_timestamp": 1776096054, "identifier": "22718cf5-213e-4830-b139-f432feeb5c72"}</recraft-signature></metadata></svg>