<svg xmlns="http://www.w3.org/2000/svg" height="512" preserveAspectRatio="none" style="display: block;" version="1.1" viewBox="0 0 2048 2048" width="512">
<path d="M 1296.97 197.516 C 1402.4 189.06 1428.89 314.353 1455.79 390.067 C 1474.3 442.13 1495.88 493.323 1514.74 545.107 C 1575.75 549.055 1618.76 559.902 1667.85 599.07 C 1768.6 679.457 1792.78 827.203 1721.77 934.694 C 1711.65 950.019 1696.79 962.9 1685.24 977.104 L 1684.58 977.917 C 1693.04 997.323 1701.47 1020.88 1709.49 1040.94 L 1759.58 1166.95 C 1769.43 1192.2 1792.22 1238.46 1795.07 1262.16 C 1811.27 1396.66 1639.42 1455.48 1581.4 1321.71 C 1401.4 1266.89 1144.28 1262.3 966.548 1309.12 C 987.115 1340.35 1029.86 1404.98 1018.59 1438.7 C 1006.47 1475 969.081 1480.47 939.049 1495.91 C 955.53 1521.99 974.907 1564.82 991.36 1588.32 C 1016.37 1624.06 1065.21 1639.8 1069.25 1694.74 C 1071.6 1726.74 1066.08 1747.38 1046.03 1772.37 C 1018.01 1802.7 986.415 1809.01 950.644 1826.15 C 853.216 1872.83 811.011 1824.78 764.8 1742.32 L 610.416 1476.85 C 603.599 1464.93 597.587 1452.89 590.516 1441.04 C 522.016 1440.36 485.608 1426.43 445.756 1367.97 C 310.798 1404.31 316.419 1299.04 272.516 1208.74 C 242.06 1146.09 236.358 1065.07 325.939 1052.4 C 329.953 995.424 353.777 939.66 409.595 916.769 C 706.65 794.947 900.298 733.369 1115.15 468.203 C 1141.69 435.446 1178.33 387.637 1194.68 349.022 C 1181.98 273.36 1212.44 205.485 1296.97 197.516 z" fill="rgb(103,79,50)" transform="translate(0,0)"></path>
<path d="M 709.532 828.703 C 746.673 808.538 785.316 791.922 821.415 769.452 C 968.206 678.085 1119.53 543.202 1209.8 392.745 C 1218.13 415.369 1229.67 441.249 1238.8 464.244 C 1263.28 522.77 1286.01 581.474 1309.37 640.425 L 1406.54 885.724 C 1413.74 903.805 1422.53 923.339 1428.52 941.693 C 1434.01 951.425 1442.42 974.443 1446.82 985.632 L 1538.23 1213.52 C 1546.38 1233.95 1559.4 1262.24 1565.67 1282.19 C 1351.77 1237.88 1158.53 1222.91 942.746 1280.18 C 928.11 1284.06 911.534 1289.61 896.982 1292.78 C 889.008 1272.12 872.349 1233.52 867.075 1214.17 C 850.591 1181.06 835.32 1140.52 821.141 1105.72 L 739.552 904.085 L 709.532 828.703 z" fill="rgb(187,160,150)" transform="translate(0,0)"></path>
<path d="M 1428.52 941.693 C 1434.01 951.425 1442.42 974.443 1446.82 985.632 L 1538.23 1213.52 C 1546.38 1233.95 1559.4 1262.24 1565.67 1282.19 C 1351.77 1237.88 1158.53 1222.91 942.746 1280.18 C 928.11 1284.06 911.534 1289.61 896.982 1292.78 C 889.008 1272.12 872.349 1233.52 867.075 1214.17 C 894.107 1202.6 935.532 1195.33 964.875 1186.58 C 1114.62 1141.91 1255.65 1069.77 1380.91 976.531 C 1396.75 964.74 1411.33 951.607 1428.52 941.693 z" fill="rgb(190,125,105)" transform="translate(0,0)"></path>
<path d="M 1285.92 233.618 C 1363.2 224.613 1375.7 273.82 1399.09 334.643 L 1737.14 1198.93 C 1746.83 1223.4 1763.48 1256.26 1762.53 1282.19 C 1758.31 1367.91 1650.11 1395.99 1614.92 1317.79 C 1606.78 1299.69 1599.88 1281.38 1592.63 1262.89 L 1307.85 547.771 C 1280.15 479.049 1251.14 408.226 1226.29 338.434 C 1210.19 293.202 1240.21 246.839 1285.92 233.618 z" fill="rgb(187,160,150)" transform="translate(0,0)"></path>
<path d="M 1762.53 1282.19 C 1758.31 1367.91 1650.11 1395.99 1614.92 1317.79 C 1606.78 1299.69 1599.88 1281.38 1592.63 1262.89 L 1307.85 547.771 C 1280.15 479.049 1251.14 408.226 1226.29 338.434 C 1210.19 293.202 1240.21 246.839 1285.92 233.618 C 1286.4 240.715 1286.77 250.453 1286 257.519 C 1281.22 301.561 1300.35 339.158 1316.6 378.581 L 1646.62 1208.85 C 1675.33 1281.92 1675.1 1301.8 1762.53 1282.19 z" fill="rgb(168,184,88)" transform="translate(0,0)"></path>
<path d="M 360.758 1052.4 C 356.189 966.009 429.234 943.468 492.424 919.203 L 579.27 885.097 C 613.653 871.536 647.369 855.824 681.43 842.492 C 692.06 866.452 702.973 896.803 712.628 921.707 C 742.139 997.989 774.741 1075.86 805.297 1152.08 L 843.186 1246.97 C 850.64 1265.47 858.457 1285.85 867.075 1303.74 L 652.748 1387.57 C 521.964 1439.56 491.338 1392.38 442.297 1277.45 L 380.7 1122.49 C 369.245 1094.75 362.378 1082.87 360.758 1052.4 z" fill="rgb(231,207,195)" transform="translate(0,0)"></path>
<path d="M 360.758 1052.4 C 356.189 966.009 429.234 943.468 492.424 919.203 L 579.27 885.097 C 613.653 871.536 647.369 855.824 681.43 842.492 C 692.06 866.452 702.973 896.803 712.628 921.707 C 675.923 935.71 625.836 955.309 590.516 972.893 C 569.845 961.98 500.642 997.249 490.826 1007.19 C 448.575 1018.55 404.864 1039.66 360.758 1052.4 z" fill="rgb(255,255,255)" transform="translate(0,0)"></path>
<path d="M 490.826 1007.19 C 500.642 997.249 569.845 961.98 590.516 972.893 C 602.096 1006.35 537.942 1022.2 511.682 1029.43 C 496.504 1033.6 489.127 1021.17 490.826 1007.19 z" fill="rgb(103,79,50)" transform="translate(0,0)"></path>
<path d="M 604.904 1045.08 C 626.452 1046.31 629.647 1072.04 603.349 1080.8 C 581.356 1088.13 557.985 1102.94 534.243 1107.92 C 524.718 1107.78 517.844 1103.44 516.751 1093.27 C 514.728 1074.46 589.868 1049.74 604.904 1045.08 z" fill="rgb(103,79,50)" transform="translate(0,0)"></path>
<path d="M 688.297 1407.96 C 725.008 1399.43 787.13 1370.9 822.789 1356.13 C 869.727 1433.61 911.249 1527.9 960.476 1602.15 C 981.736 1637.13 1023.05 1652.09 1034.92 1691.76 C 1042.66 1761.06 993.032 1769.82 940.736 1793.81 C 856.927 1832.26 830.855 1793.93 790.785 1722.04 L 743.858 1638.22 C 733.549 1619.83 721.511 1601.01 710.775 1582.68 L 623.666 1433.44 C 644.262 1425.17 668.997 1418.35 688.297 1407.96 z" fill="rgb(168,184,88)" transform="translate(0,0)"></path>
<path d="M 1528.83 579.811 C 1680.08 577.578 1781.3 768.073 1698.79 908.91 C 1689.97 922.307 1682.71 931.254 1670.66 941.693 C 1662.84 925.478 1657.12 907.855 1650.62 891.047 C 1610.44 787.235 1567.21 684.312 1528.83 579.811 z" fill="rgb(231,207,195)" transform="translate(0,0)"></path>
<path d="M 325.939 1085.01 L 327.851 1084.74 C 333.716 1087.71 421.865 1312.16 430.779 1338.32 C 415.818 1341.14 406.165 1343.6 390.95 1342.78 C 345.551 1328.07 344.16 1301.61 327.834 1261.28 C 314.963 1229.48 303.335 1197.11 290.444 1165.3 C 275.76 1128.91 288.464 1097.59 325.939 1085.01 z" fill="rgb(190,125,105)" transform="translate(0,0)"></path>
<path d="M 932.708 1317.27 C 941.508 1325.82 980.507 1402.77 987.261 1415.99 C 996.256 1433.6 929.431 1475.18 917.768 1457.54 C 898.751 1425.19 870.895 1376.7 855.191 1342.78 C 880.06 1333.16 907.147 1325.19 932.708 1317.27 z" fill="rgb(168,184,88)" transform="translate(0,0)"></path>
<metadata><recraft-signature>{"signed_by": "recraft", "signature_b64": "g0fzvsETJAQXzDnGlERIb6fKJZk48X5aXuct1n49r3NS16pKAQfl+Ev/cdCbJ2rEY3rs7NOsJ1veVOmKJYRnCg==", "signing_algo": "Ed25519", "generation_timestamp": 1776096038, "identifier": "94cee42b-10f0-49df-a8b2-d53d4429d001"}</recraft-signature></metadata></svg>