<svg xmlns="http://www.w3.org/2000/svg" height="512" preserveAspectRatio="none" style="display: block;" version="1.1" viewBox="0 0 2048 2048" width="512">
<path d="M 1024.75 324.317 C 1058.15 329.247 1168.16 376.593 1207.18 391.261 L 1675.09 567.362 C 1685.81 571.506 1785.71 608.43 1786.15 613.738 C 1787.25 627.067 1789.07 705.359 1785.16 714.214 C 1778.9 719.967 1711.83 717.799 1698.74 717.765 C 1698.64 840.948 1720.78 812.451 1584.54 812.517 C 1580.8 855.603 1598.93 901.295 1551.01 925.059 L 1551.01 1314.71 C 1586.5 1332.69 1584.87 1361.98 1584.62 1395.89 L 1584.54 1435.81 C 1615.6 1435.85 1648.44 1435.43 1679.45 1435.44 C 1702.33 1435.45 1698.88 1466.49 1698.83 1482.91 L 1698.74 1536.14 L 1772 1536.09 C 1799.25 1536.06 1843.03 1529.41 1842.94 1569.64 C 1842.86 1610.8 1843.69 1651.97 1842.51 1693.13 C 1843.66 1731.64 1762.88 1719.41 1737.14 1719.4 L 1024.75 1719.41 L 262.71 1719.5 C 234.985 1719.59 208.118 1722.29 207.287 1683.99 C 206.579 1651.38 207.816 1618.87 207.173 1586.25 C 206.105 1532.14 223.195 1538.68 267.477 1536.05 C 294.478 1535.38 322.037 1537.09 349.013 1536.14 L 349.013 1435.81 L 465.374 1435.81 C 465.234 1393.85 454.596 1335.99 497.401 1314.71 L 497.401 925.059 C 462.308 907.051 460.861 884.941 460.941 849.29 L 461.076 812.517 L 397.882 812.6 C 386.342 812.69 359 814.975 350.982 808.355 C 347.503 801.033 348.986 731.742 349.013 717.765 C 336.064 717.44 262.089 723.577 261.325 710.441 C 260.753 700.616 257.787 612.169 263.138 609.411 C 277.43 602.045 305.028 592.414 319.023 586.954 C 511.769 511.755 706.569 441.163 900.739 369.601 L 975.93 341.241 C 986.669 337.144 1014.87 325.634 1024.75 324.317 z M 695.393 1314.71 C 740.501 1333.68 729.065 1393.56 728.965 1435.81 C 743.819 1435.8 896.378 1436.03 896.717 1435.81 C 896.985 1390.99 884.406 1340.89 926.482 1314.71 L 926.471 1066.16 C 926.458 1021.15 925.194 969.642 926.482 925.059 C 880.331 892.065 892.255 863.556 892.033 812.517 L 725.802 812.517 L 725.924 850.935 C 726.222 889.949 723.41 897.99 695.393 925.059 L 695.393 1314.71 z M 1159.36 812.517 C 1159.17 851.884 1169.79 908.416 1123.41 925.059 L 1123.41 1314.71 C 1164.96 1333.62 1153.34 1396.17 1153.55 1435.81 L 1318.25 1435.81 L 1320.46 1435.11 C 1330.95 1397.43 1299.9 1348.27 1353.37 1314.71 L 1353.37 925.059 C 1308.75 890.016 1321.35 865.362 1321.04 812.517 L 1214.06 812.477 C 1197.91 812.463 1175.01 811.715 1159.36 812.517 z" fill="rgb(74,37,30)" transform="translate(0,0)"></path>
<path d="M 1515.11 1552.64 L 1561.55 1552.84 C 1566.39 1552.88 1580.49 1553.39 1584.54 1552.64 C 1598.67 1567.88 1674.31 1560.49 1698.74 1560.49 C 1716.59 1560.46 1802.1 1558.86 1813.69 1563.46 C 1818.58 1572.52 1816.81 1677.38 1816.65 1695.28 C 1779.55 1695.29 1735.36 1696.34 1698.74 1695.28 L 336.765 1695.29 C 323.762 1695.29 242.382 1696.68 234.218 1693.85 C 232.169 1684.94 232.864 1655.93 232.861 1645.88 L 232.883 1560.49 L 1467.48 1560.59 C 1482.2 1560.63 1505.16 1565.68 1515.11 1552.64 z" fill="rgb(224,230,195)" transform="translate(0,0)"></path>
<path d="M 1698.74 1560.49 C 1716.59 1560.46 1802.1 1558.86 1813.69 1563.46 C 1818.58 1572.52 1816.81 1677.38 1816.65 1695.28 C 1779.55 1695.29 1735.36 1696.34 1698.74 1695.28 L 1698.74 1560.49 z" fill="rgb(231,207,196)" transform="translate(0,0)"></path>
<path d="M 286.171 633.196 L 1761.67 633.196 L 1761.67 692.532 L 613.535 692.206 C 589.079 692.294 590.166 716.437 604.793 717.478 C 617.894 718.411 631.294 717.955 644.461 717.884 L 716.5 717.765 L 1674 717.765 L 1674 787.054 L 374.257 787.054 L 374.257 717.765 L 503.735 718.306 C 517.372 718.402 520.883 694.003 503.204 693.168 C 478.488 692 453.844 692.569 429.097 692.572 L 286.171 692.532 L 286.171 633.196 z" fill="rgb(231,207,196)" transform="translate(0,0)"></path>
<path d="M 995.084 361.913 C 1005.05 358.18 1014.65 354.607 1024.75 351.219 C 1071.97 365.264 1125.42 387.004 1171.52 404.769 L 1679.08 596.119 C 1688.12 599.595 1704.09 605.161 1712.23 608.99 L 1509.51 608.99 L 338.71 608.99 C 398.144 576.175 509.795 541.329 574.999 517.48 L 995.084 361.913 z" fill="rgb(169,184,89)" transform="translate(0,0)"></path>
<path d="M 374.257 1460.85 L 1674 1460.85 L 1674 1536.14 C 1651.75 1536.07 1586.92 1525.39 1584.54 1552.64 C 1580.49 1553.39 1566.39 1552.88 1561.55 1552.84 L 1515.11 1552.64 C 1514.93 1545.72 1515.1 1543.29 1510.89 1537.96 C 1498.12 1534.82 1433.8 1536.09 1417.86 1536.11 L 374.257 1536.14 L 374.257 1460.85 z" fill="rgb(231,207,196)" transform="translate(0,0)"></path>
<path d="M 522.537 927.204 C 531.393 926.217 557.895 927.138 568.352 927.151 L 670.007 927.204 L 670.045 1281.43 C 670.072 1285.46 671.323 1307.12 670.007 1309.39 L 522.537 1309.39 L 522.537 927.204 z" fill="rgb(224,230,195)" transform="translate(0,0)"></path>
<path d="M 1378.84 927.204 C 1427.41 927.046 1477.7 928.054 1526.08 927.204 L 1526.08 1309.39 L 1378.84 1309.39 L 1378.84 927.204 z" fill="rgb(224,230,195)" transform="translate(0,0)"></path>
<path d="M 952.401 927.204 C 965.902 926.446 987.219 927.141 1001.15 927.149 L 1097.97 927.204 L 1097.97 1309.39 L 952.401 1309.39 L 952.401 927.204 z" fill="rgb(224,230,195)" transform="translate(0,0)"></path>
<path d="M 517.54 1335.13 C 570.284 1334.21 625.51 1335.58 678.397 1335.27 C 711.747 1335.07 702.913 1416.39 702.851 1435.81 L 677.5 1435.81 L 490.695 1435.81 L 490.519 1389.99 C 490.449 1366.28 487.582 1341.1 517.54 1335.13 z" fill="rgb(169,184,89)" transform="translate(0,0)"></path>
<path d="M 1378.84 1335.13 L 1477.51 1335.09 C 1543.86 1335.1 1559.34 1326.44 1558.82 1405.12 C 1558.75 1415.96 1558.77 1425.59 1558.73 1435.81 L 1526.08 1435.81 L 1346.49 1435.81 C 1346.55 1400.92 1334.25 1341.5 1378.84 1335.13 z" fill="rgb(169,184,89)" transform="translate(0,0)"></path>
<path d="M 946.298 1335.13 C 992.222 1332.14 1055.71 1334.42 1102.78 1335.47 C 1138.14 1336.27 1127.78 1412.22 1127.71 1435.81 L 1104.5 1435.81 L 921.984 1435.81 C 921.952 1403.72 911.843 1347.19 946.298 1335.13 z" fill="rgb(169,184,89)" transform="translate(0,0)"></path>
<path d="M 1009.56 812.517 L 1133.9 812.517 C 1133.78 910.313 1141.61 901.498 1042.43 901.118 L 982.528 901.208 C 952.138 901.466 937.33 907.78 918.357 880.484 C 917.924 858.369 918.339 834.745 918.357 812.517 L 1009.56 812.517 z" fill="rgb(169,184,89)" transform="translate(0,0)"></path>
<path d="M 486.096 812.517 C 556.664 812.521 628.52 811.755 698.941 812.517 C 699.025 834.921 704.662 876.707 689.87 893.68 C 672.963 906.18 648.402 901.18 626.749 901.162 L 523.338 901.535 C 473.23 901.433 485.898 850.367 486.096 812.517 z" fill="rgb(169,184,89)" transform="translate(0,0)"></path>
<path d="M 1444.56 812.517 C 1482.38 812.551 1521 812.02 1558.73 812.517 L 1558.89 862.211 C 1558.86 903.294 1541.04 901.554 1507.52 901.231 L 1464.5 901.118 L 1404.07 901.235 C 1329.98 901.299 1346.26 879.396 1346.49 812.517 L 1444.56 812.517 z" fill="rgb(169,184,89)" transform="translate(0,0)"></path>
<metadata><recraft-signature>{"signed_by": "recraft", "signature_b64": "v9mssw/6l3jvCBWOj54yYy86AFqrj7uK8KO+ldb702uVSlJz7P2gMr7wZEq8QjwVuesJWwOdOhNrIBXisFo7BQ==", "signing_algo": "Ed25519", "generation_timestamp": 1776096030, "identifier": "68466e05-bd56-4fab-b5e4-8c4e4d9f7eee"}</recraft-signature></metadata></svg>