<svg xmlns="http://www.w3.org/2000/svg" height="512" preserveAspectRatio="none" style="display: block;" version="1.1" viewBox="0 0 2048 2048" width="512">
<defs>
	<linearGradient gradientUnits="userSpaceOnUse" id="Gradient1" x1="1390.4" x2="1331.26" y1="1369.65" y2="679.72">
		<stop class="stop0" offset="0" stop-color="rgb(203,178,158)" stop-opacity="1"></stop>
		<stop class="stop1" offset="1" stop-color="rgb(237,237,238)" stop-opacity="1"></stop>
	</linearGradient>
	<linearGradient gradientUnits="userSpaceOnUse" id="Gradient2" x1="1373.33" x2="677.448" y1="1367.5" y2="1359.06">
		<stop class="stop0" offset="0" stop-color="rgb(205,181,163)" stop-opacity="1"></stop>
		<stop class="stop1" offset="1" stop-color="rgb(237,235,236)" stop-opacity="1"></stop>
	</linearGradient>
	<linearGradient gradientUnits="userSpaceOnUse" id="Gradient3" x1="675.321" x2="1371.87" y1="672.33" y2="690.999">
		<stop class="stop0" offset="0" stop-color="rgb(202,169,146)" stop-opacity="1"></stop>
		<stop class="stop1" offset="1" stop-color="rgb(241,243,245)" stop-opacity="1"></stop>
	</linearGradient>
</defs>
<path d="M 1018.67 214.335 C 1071.83 208.64 1082.19 258.986 1082.04 299.832 L 1081.94 342.891 C 1105.9 343.823 1135.06 348.943 1158.47 353.585 C 1461.04 413.588 1675.29 662.146 1707.19 963.923 C 1726.01 963.748 1745.43 964.172 1763.95 964.262 C 1816.3 964.514 1842.81 1027.07 1805.81 1064.29 C 1780.37 1089.88 1740.23 1081.28 1707.19 1081.69 C 1686.39 1362.96 1469.83 1610.55 1199.6 1684.06 C 1160.45 1694.71 1122.19 1700.96 1081.94 1706.37 C 1082.06 1755.65 1092.65 1817.29 1026.95 1825.85 C 974.577 1827.49 966.838 1785.76 966.879 1745.14 L 966.979 1706.37 C 667.472 1668.02 421.975 1468.89 355.588 1166.26 C 350.054 1141.03 343.39 1107.47 342.853 1081.69 L 304.088 1081.73 C 280.377 1081.79 257.76 1083.42 239.533 1064.83 C 216.073 1040.89 216.228 1002.38 240.968 979.312 C 263.145 958.637 312.205 962.461 342.853 963.923 C 375.969 666.654 582.775 416.611 881.124 354.955 C 908.907 349.213 938.316 343 966.979 342.891 L 966.8 301.728 C 966.437 260.614 969.045 221.25 1018.67 214.335 z" fill="rgb(74,37,30)" transform="translate(0,0)"></path>
<path d="M 960.666 374.823 C 959.817 375 964.277 373.961 963.368 374.582 C 966.564 373.426 966.599 389.729 966.74 391.952 C 970.745 454.823 1082.55 473.969 1081.94 374.823 C 1103.1 375.572 1125.68 379.623 1146.49 383.475 C 1441.82 438.141 1638.45 673.936 1676.49 963.923 C 1654.23 963.444 1632.8 963.846 1615.38 979.778 C 1590.22 1002.79 1587.69 1038.65 1611.85 1063.69 C 1629.95 1082.44 1652.64 1081.6 1676.49 1081.69 C 1671.17 1108.39 1669.09 1135.55 1663.07 1162.46 C 1607.51 1410.58 1406.16 1608.06 1158.26 1662.29 C 1134.28 1667.54 1110.24 1670.79 1086.16 1675.43 C 1077.28 1673.6 1081.28 1659.35 1079.44 1649.13 C 1070.11 1597.28 975.375 1568.6 966.979 1675.43 C 879.524 1661.57 834.236 1651.92 753.77 1615.51 C 570.653 1532.66 429.679 1357.12 386.68 1161.02 C 381.611 1137.9 374.826 1104.97 374.696 1081.69 C 396.704 1081.64 422.401 1083.25 439.268 1067.22 C 462.577 1045.06 463.934 1006.27 441.942 982.786 C 422.99 962.546 399.514 964.849 374.696 963.923 C 375.53 939.915 380.876 909.741 385.961 886.334 C 443.062 623.51 687.225 388.701 960.666 374.823 z" fill="rgb(190,125,105)" transform="translate(0,0)"></path>
<path d="M 1000.57 477.356 C 1301.35 464.029 1555.96 697.116 1569.18 997.904 C 1582.4 1298.69 1349.22 1553.22 1048.43 1566.33 C 747.788 1579.43 493.42 1346.4 480.208 1045.76 C 466.995 745.127 699.939 490.676 1000.57 477.356 z" fill="rgb(74,37,30)" transform="translate(0,0)"></path>
<path d="M 1023.17 591.474 C 1028.82 596.784 1119.66 823.513 1132.02 853.835 C 1137.33 866.864 1141.27 880.113 1148.6 892.682 C 1157.47 898.484 1200.31 913.428 1213.9 918.925 L 1429.91 1006.39 C 1441.66 1011.04 1454.25 1015.54 1465.35 1021.45 C 1408.12 1041.02 1342.8 1068.41 1286.22 1091.14 L 1207.75 1122.95 C 1130.15 1154.62 1153.13 1149.3 1119.26 1228.21 L 1079.35 1323.53 C 1061.15 1366.65 1043.7 1406.96 1026.95 1450.74 L 1023.17 1458.4 C 1005.65 1408.63 979.834 1350.86 959.49 1301.79 L 922.056 1211.39 C 888.519 1130.56 897.992 1150.2 814.827 1115.78 L 691.078 1064.28 C 658.101 1050.69 623.046 1037.07 591.214 1021.45 C 617.632 1009.91 894.931 898.434 898.665 890.491 C 908.862 868.792 917.069 844.811 926.469 822.552 L 998.51 651.245 C 1006.7 631.921 1014.48 610.21 1023.17 591.474 z" fill="rgb(168,184,88)" transform="translate(0,0)"></path>
<path d="M 1020.39 871.026 C 1103.36 868.42 1172.78 933.472 1175.57 1016.44 C 1178.35 1099.4 1113.45 1168.96 1030.49 1171.93 C 947.28 1174.91 877.457 1109.76 874.663 1026.54 C 871.869 943.321 937.164 873.64 1020.39 871.026 z" fill="rgb(74,37,30)" transform="translate(0,0)"></path>
<path d="M 1018.14 903.056 C 1083.68 899.255 1139.87 949.369 1143.56 1014.92 C 1147.25 1080.47 1097.04 1136.58 1031.49 1140.16 C 966.084 1143.73 910.14 1093.67 906.458 1028.27 C 902.776 962.875 952.745 906.848 1018.14 903.056 z" fill="rgb(231,207,195)" transform="translate(0,0)"></path>
<path d="M 763.609 580.196 C 782.43 567.465 813.094 554.353 834.073 545.432 C 1023.63 464.818 1225.62 514.784 1376.91 647.556 C 1367.13 659.907 1353.05 672.774 1341.57 684.002 L 1214.57 810.11 C 1200.1 824.698 1183.15 842.774 1168.13 856.2 C 1158.98 835.886 1150.74 814.064 1142.06 793.375 L 1048.79 568.247 C 1044.53 557.835 1038.01 531.461 1027.42 526.737 C 1008.35 518.237 984.078 603.81 978.125 618.268 L 889.664 830.444 C 886.787 837.571 882.354 849.62 878.999 856.2 C 849.175 815.815 790.715 767.049 754.701 728.892 C 746.95 720.68 730.746 705.433 724.264 697.356 C 715.312 690.849 681.547 656.315 674.68 647.556 C 689.976 628.439 741.191 592.906 763.609 580.196 z" fill="url(#Gradient3)" transform="translate(0,0)"></path>
<path d="M 674.68 647.556 C 689.976 628.439 741.191 592.906 763.609 580.196 C 761.329 592.271 749.198 590.782 739.175 605.092 L 739.636 606.443 L 743.015 605.435 C 745.782 612.044 730.501 637.664 719.417 632.99 C 719.446 627.109 725.565 626.506 722.638 619.76 C 700.609 631.666 700.279 624.303 674.68 647.556 C 679.959 651.342 724.591 693.626 725.682 697.012 L 724.264 697.356 C 715.312 690.849 681.547 656.315 674.68 647.556 z" fill="rgb(187,160,150)" transform="translate(0,0)"></path>
<path d="M 878.999 1189.63 C 881.628 1193.53 903.027 1247.96 906.131 1255.63 L 997.518 1475.61 C 1002.06 1486.67 1021.96 1541.74 1038.39 1504.57 C 1048.61 1481.44 1057.72 1457.64 1067.6 1434.21 L 1132.5 1279.66 C 1144.78 1250.41 1157.31 1217.86 1171.34 1189.63 C 1187.44 1203.5 1207.95 1225.29 1223.28 1240.77 L 1309.02 1327.66 C 1331.32 1350.47 1357.32 1371.99 1376.91 1396.99 L 1366.79 1404.64 C 1154.3 1579.33 883.624 1587.63 674.68 1396.99 C 685.705 1384.2 699.351 1371.02 711.369 1358.9 L 829.808 1239.29 C 845.482 1223.29 862.736 1204.71 878.999 1189.63 z" fill="url(#Gradient2)" transform="translate(0,0)"></path>
<path d="M 652.773 671.176 C 652.566 671.138 838.699 858.3 856.969 875.689 C 789.382 907.591 708.285 938.626 638.616 966.939 L 579.046 991.283 C 520.516 1015.51 516.686 1025.68 580.293 1052.23 L 631.519 1073.81 C 705.717 1105.06 783.899 1135.17 856.969 1167.51 L 844.594 1179.5 C 781.277 1240.82 713.265 1309.56 652.773 1374.06 C 474.436 1205.94 468.593 898.077 618.092 708.139 C 629.154 694.085 638.12 681.528 652.773 671.176 z" fill="rgb(231,207,195)" transform="translate(0,0)"></path>
<path d="M 1399.09 671.176 C 1408.94 678.862 1425.37 700.984 1433.39 711.318 C 1577.24 896.81 1572.35 1151.27 1429.62 1336.8 C 1419.96 1349.35 1408.19 1361.55 1399.09 1374.06 C 1384.29 1357.54 1366.65 1340.94 1350.9 1325.09 L 1243.99 1217.7 C 1233.5 1207.04 1200.69 1175.16 1192.67 1164.31 L 1193.85 1163.55 C 1203.59 1157.33 1221.08 1150.83 1232.18 1146.46 L 1283.67 1126.25 C 1342.53 1103.18 1401.59 1080.32 1459.99 1056.18 C 1509.2 1034.27 1560.39 1027 1481.74 994.511 L 1273.73 909.061 C 1263.61 904.821 1225.43 889.762 1217.8 885.331 C 1210.43 882.982 1200.1 878.585 1192.67 875.689 C 1205.57 863.113 1218.52 849.362 1231.67 837.222 C 1275.92 782.482 1348.32 725.268 1399.09 671.176 z" fill="url(#Gradient1)" transform="translate(0,0)"></path>
<path d="M 1231.67 837.222 L 1232.18 839.366 C 1225.22 846.827 1216.8 854.222 1210.24 861.551 C 1214.14 870.945 1214.34 871.315 1213.4 881.761 L 1217.72 883.887 C 1217.75 884.368 1217.77 884.85 1217.8 885.331 C 1210.43 882.982 1200.1 878.585 1192.67 875.689 C 1205.57 863.113 1218.52 849.362 1231.67 837.222 z" fill="rgb(231,207,195)" transform="translate(0,0)"></path>
<path d="M 276.535 994.971 C 297.546 994.822 399.15 992.363 411.627 997.158 C 436.08 1006.56 432.015 1040.15 404.834 1050.96 C 370.47 1053.99 319.548 1051.39 284.778 1050.46 C 248.27 1049.49 240.083 1007.98 276.535 994.971 z" fill="rgb(187,160,150)" transform="translate(0,0)"></path>
<path d="M 1649.59 994.971 C 1687.8 994.413 1726.74 994.922 1764.92 995.422 C 1796.7 995.839 1802.98 1043.44 1766.44 1050.96 C 1745.03 1051.83 1720.02 1051.74 1698.42 1051.04 C 1664.91 1049.94 1634.26 1061.5 1624.59 1021.45 C 1627.93 1007.06 1635.93 999.564 1649.59 994.971 z" fill="rgb(187,160,150)" transform="translate(0,0)"></path>
<path d="M 1023.17 246.303 C 1055.75 248.111 1050.3 276.449 1050.69 300.131 C 1050.97 334.618 1064 403.834 1026.95 412.888 C 992.77 414.22 997.312 380.902 997.625 357.707 C 998.11 321.833 983.002 253.174 1023.17 246.303 z" fill="rgb(246,185,110)" transform="translate(0,0)"></path>
<path d="M 1018.67 1635.09 C 1029.53 1634.46 1041.33 1636.43 1046.56 1647.36 C 1051.77 1658.25 1053.01 1763.87 1048.61 1776.37 C 1045.42 1785.43 1038.43 1790.59 1030.22 1794.77 C 1009.27 1796.91 997.949 1784.59 997.885 1764.37 C 997.78 1730.88 984.214 1646.23 1018.67 1635.09 z" fill="rgb(246,185,110)" transform="translate(0,0)"></path>
<metadata><recraft-signature>{"signed_by": "recraft", "signature_b64": "ugee3nI8jhsuUr0poLEiiFTfcrFOTNXuP/sxr761uJIKajRlwe4GSAbkLcjGgCK933379eoNXd+ZC5iYKgdGDQ==", "signing_algo": "Ed25519", "generation_timestamp": 1776096046, "identifier": "d3a01e89-41fd-42ec-b220-f450e1fc5314"}</recraft-signature></metadata></svg>